<mxfile host="app.diagrams.net" modified="2024-06-19T18:49:02.121Z" agent="Mozilla/5.0 (Windows NT 10.0; Win64; x64) AppleWebKit/537.36 (KHTML, like Gecko) Chrome/126.0.0.0 Safari/537.36" etag="zECwXErXfWOSeNR-I_k7" version="24.5.5" type="github" pages="3">
  <diagram name="OEE Data Flow - MQTT" id="iwFp47j3jkuVN9hIityh">
    <mxGraphModel dx="1647" dy="886" grid="1" gridSize="10" guides="1" tooltips="1" connect="1" arrows="1" fold="1" page="1" pageScale="1" pageWidth="1100" pageHeight="850" math="0" shadow="0">
      <root>
        <mxCell id="0" />
        <mxCell id="1" parent="0" />
        <mxCell id="RF0k78xntV_aua3ALXSV-92" value="" style="swimlane;startSize=0;" parent="1" vertex="1">
          <mxGeometry x="40" y="770" width="1410" height="1010" as="geometry" />
        </mxCell>
        <mxCell id="RF0k78xntV_aua3ALXSV-105" value="" style="rounded=0;whiteSpace=wrap;html=1;" parent="RF0k78xntV_aua3ALXSV-92" vertex="1">
          <mxGeometry x="30" y="40" width="950" height="900" as="geometry" />
        </mxCell>
        <mxCell id="RF0k78xntV_aua3ALXSV-106" value="" style="rounded=0;whiteSpace=wrap;html=1;" parent="RF0k78xntV_aua3ALXSV-92" vertex="1">
          <mxGeometry x="65" y="200" width="640" height="680" as="geometry" />
        </mxCell>
        <mxCell id="RF0k78xntV_aua3ALXSV-107" value="Sepasoft-MES" style="rounded=0;whiteSpace=wrap;html=1;fontStyle=1;fontSize=16;" parent="RF0k78xntV_aua3ALXSV-92" vertex="1">
          <mxGeometry x="73" y="190" width="150" height="40" as="geometry" />
        </mxCell>
        <mxCell id="RF0k78xntV_aua3ALXSV-109" value="" style="rounded=0;whiteSpace=wrap;html=1;" parent="RF0k78xntV_aua3ALXSV-92" vertex="1">
          <mxGeometry x="260" y="310" width="330" height="200" as="geometry" />
        </mxCell>
        <mxCell id="RF0k78xntV_aua3ALXSV-112" value="Ignition" style="rounded=0;whiteSpace=wrap;html=1;fontStyle=1;fontSize=16;" parent="RF0k78xntV_aua3ALXSV-92" vertex="1">
          <mxGeometry x="385" y="20" width="150" height="40" as="geometry" />
        </mxCell>
        <mxCell id="RF0k78xntV_aua3ALXSV-199" style="edgeStyle=orthogonalEdgeStyle;rounded=0;orthogonalLoop=1;jettySize=auto;html=1;exitX=0;exitY=0.5;exitDx=0;exitDy=0;entryX=0;entryY=0.5;entryDx=0;entryDy=0;" parent="RF0k78xntV_aua3ALXSV-92" source="RF0k78xntV_aua3ALXSV-113" target="RF0k78xntV_aua3ALXSV-118" edge="1">
          <mxGeometry relative="1" as="geometry" />
        </mxCell>
        <mxCell id="RF0k78xntV_aua3ALXSV-113" value="MES Equipment" style="rounded=0;whiteSpace=wrap;html=1;fontStyle=1;fontSize=14;" parent="RF0k78xntV_aua3ALXSV-92" vertex="1">
          <mxGeometry x="90" y="260" width="120" height="40" as="geometry" />
        </mxCell>
        <mxCell id="RF0k78xntV_aua3ALXSV-193" style="edgeStyle=orthogonalEdgeStyle;rounded=0;orthogonalLoop=1;jettySize=auto;html=1;exitX=1;exitY=0.5;exitDx=0;exitDy=0;entryX=0;entryY=0.5;entryDx=0;entryDy=0;" parent="RF0k78xntV_aua3ALXSV-92" source="RF0k78xntV_aua3ALXSV-118" target="RF0k78xntV_aua3ALXSV-121" edge="1">
          <mxGeometry relative="1" as="geometry">
            <Array as="points">
              <mxPoint x="230" y="380" />
              <mxPoint x="230" y="415" />
            </Array>
          </mxGeometry>
        </mxCell>
        <mxCell id="RF0k78xntV_aua3ALXSV-118" value="Equipment&amp;nbsp;&lt;br&gt;ISA-95" style="rounded=0;whiteSpace=wrap;html=1;" parent="RF0k78xntV_aua3ALXSV-92" vertex="1">
          <mxGeometry x="90" y="350" width="120" height="60" as="geometry" />
        </mxCell>
        <mxCell id="RF0k78xntV_aua3ALXSV-120" value="&lt;font style=&quot;font-size: 12px;&quot;&gt;OEE&lt;/font&gt;" style="rounded=0;whiteSpace=wrap;html=1;fontStyle=1;fontSize=14;" parent="RF0k78xntV_aua3ALXSV-92" vertex="1">
          <mxGeometry x="90" y="320" width="41" height="30" as="geometry" />
        </mxCell>
        <mxCell id="RF0k78xntV_aua3ALXSV-121" value="Equipment&amp;nbsp;" style="rounded=0;whiteSpace=wrap;html=1;" parent="RF0k78xntV_aua3ALXSV-92" vertex="1">
          <mxGeometry x="285" y="400" width="80" height="30" as="geometry" />
        </mxCell>
        <mxCell id="RF0k78xntV_aua3ALXSV-122" value="Shifts" style="rounded=0;whiteSpace=wrap;html=1;" parent="RF0k78xntV_aua3ALXSV-92" vertex="1">
          <mxGeometry x="285" y="360" width="80" height="30" as="geometry" />
        </mxCell>
        <mxCell id="RF0k78xntV_aua3ALXSV-128" value="OEE Downtime" style="rounded=0;whiteSpace=wrap;html=1;fontSize=14;fontStyle=1" parent="RF0k78xntV_aua3ALXSV-92" vertex="1">
          <mxGeometry x="275" y="290" width="120" height="40" as="geometry" />
        </mxCell>
        <mxCell id="RF0k78xntV_aua3ALXSV-133" value="" style="rounded=0;whiteSpace=wrap;html=1;" parent="RF0k78xntV_aua3ALXSV-92" vertex="1">
          <mxGeometry x="1165" y="330" width="196" height="360" as="geometry" />
        </mxCell>
        <mxCell id="RF0k78xntV_aua3ALXSV-129" value="" style="rounded=0;whiteSpace=wrap;html=1;" parent="RF0k78xntV_aua3ALXSV-92" vertex="1">
          <mxGeometry x="730" y="510" width="200" height="380" as="geometry" />
        </mxCell>
        <mxCell id="RF0k78xntV_aua3ALXSV-131" value="MQTT" style="rounded=0;whiteSpace=wrap;html=1;fontSize=14;fontStyle=1" parent="RF0k78xntV_aua3ALXSV-92" vertex="1">
          <mxGeometry x="746" y="490" width="120" height="50" as="geometry" />
        </mxCell>
        <mxCell id="RF0k78xntV_aua3ALXSV-141" value="UNS" style="swimlane;fontStyle=0;childLayout=stackLayout;horizontal=1;startSize=30;horizontalStack=0;resizeParent=1;resizeParentMax=0;resizeLast=0;collapsible=1;marginBottom=0;whiteSpace=wrap;html=1;" parent="RF0k78xntV_aua3ALXSV-92" vertex="1">
          <mxGeometry x="760" y="560" width="140" height="270" as="geometry" />
        </mxCell>
        <mxCell id="RF0k78xntV_aua3ALXSV-147" value="Line" style="text;strokeColor=none;fillColor=none;align=left;verticalAlign=middle;spacingLeft=4;spacingRight=4;overflow=hidden;points=[[0,0.5],[1,0.5]];portConstraint=eastwest;rotatable=0;whiteSpace=wrap;html=1;" parent="RF0k78xntV_aua3ALXSV-141" vertex="1">
          <mxGeometry y="30" width="140" height="30" as="geometry" />
        </mxCell>
        <mxCell id="RF0k78xntV_aua3ALXSV-142" value="Cell" style="text;strokeColor=none;fillColor=none;align=left;verticalAlign=middle;spacingLeft=4;spacingRight=4;overflow=hidden;points=[[0,0.5],[1,0.5]];portConstraint=eastwest;rotatable=0;whiteSpace=wrap;html=1;" parent="RF0k78xntV_aua3ALXSV-141" vertex="1">
          <mxGeometry y="60" width="140" height="30" as="geometry" />
        </mxCell>
        <mxCell id="RF0k78xntV_aua3ALXSV-143" value="State" style="text;strokeColor=none;fillColor=none;align=left;verticalAlign=middle;spacingLeft=4;spacingRight=4;overflow=hidden;points=[[0,0.5],[1,0.5]];portConstraint=eastwest;rotatable=0;whiteSpace=wrap;html=1;" parent="RF0k78xntV_aua3ALXSV-141" vertex="1">
          <mxGeometry y="90" width="140" height="30" as="geometry" />
        </mxCell>
        <mxCell id="RF0k78xntV_aua3ALXSV-145" value="Infeed" style="text;align=left;verticalAlign=middle;spacingLeft=4;spacingRight=4;overflow=hidden;points=[[0,0.5],[1,0.5]];portConstraint=eastwest;rotatable=0;whiteSpace=wrap;html=1;" parent="RF0k78xntV_aua3ALXSV-141" vertex="1">
          <mxGeometry y="120" width="140" height="30" as="geometry" />
        </mxCell>
        <mxCell id="RF0k78xntV_aua3ALXSV-146" value="Outfeed" style="text;align=left;verticalAlign=middle;spacingLeft=4;spacingRight=4;overflow=hidden;points=[[0,0.5],[1,0.5]];portConstraint=eastwest;rotatable=0;whiteSpace=wrap;html=1;" parent="RF0k78xntV_aua3ALXSV-141" vertex="1">
          <mxGeometry y="150" width="140" height="30" as="geometry" />
        </mxCell>
        <mxCell id="RF0k78xntV_aua3ALXSV-148" value="SerialNumber&amp;nbsp;" style="text;align=left;verticalAlign=middle;spacingLeft=4;spacingRight=4;overflow=hidden;points=[[0,0.5],[1,0.5]];portConstraint=eastwest;rotatable=0;whiteSpace=wrap;html=1;" parent="RF0k78xntV_aua3ALXSV-141" vertex="1">
          <mxGeometry y="180" width="140" height="30" as="geometry" />
        </mxCell>
        <mxCell id="RF0k78xntV_aua3ALXSV-187" value="Mode" style="text;strokeColor=none;fillColor=none;align=left;verticalAlign=middle;spacingLeft=4;spacingRight=4;overflow=hidden;points=[[0,0.5],[1,0.5]];portConstraint=eastwest;rotatable=0;whiteSpace=wrap;html=1;" parent="RF0k78xntV_aua3ALXSV-141" vertex="1">
          <mxGeometry y="210" width="140" height="30" as="geometry" />
        </mxCell>
        <mxCell id="_Nt4qMi-7ea7wFzrv2_W-3" value="Takt_Time_Setpoint" style="text;strokeColor=none;fillColor=none;align=left;verticalAlign=middle;spacingLeft=4;spacingRight=4;overflow=hidden;points=[[0,0.5],[1,0.5]];portConstraint=eastwest;rotatable=0;whiteSpace=wrap;html=1;" parent="RF0k78xntV_aua3ALXSV-141" vertex="1">
          <mxGeometry y="240" width="140" height="30" as="geometry" />
        </mxCell>
        <mxCell id="RF0k78xntV_aua3ALXSV-149" value="Tags" style="swimlane;fontStyle=0;childLayout=stackLayout;horizontal=1;startSize=30;horizontalStack=0;resizeParent=1;resizeParentMax=0;resizeLast=0;collapsible=1;marginBottom=0;whiteSpace=wrap;html=1;" parent="RF0k78xntV_aua3ALXSV-92" vertex="1">
          <mxGeometry x="1190" y="370" width="140" height="270" as="geometry" />
        </mxCell>
        <mxCell id="RF0k78xntV_aua3ALXSV-150" value="Line" style="text;strokeColor=none;fillColor=none;align=left;verticalAlign=middle;spacingLeft=4;spacingRight=4;overflow=hidden;points=[[0,0.5],[1,0.5]];portConstraint=eastwest;rotatable=0;whiteSpace=wrap;html=1;" parent="RF0k78xntV_aua3ALXSV-149" vertex="1">
          <mxGeometry y="30" width="140" height="30" as="geometry" />
        </mxCell>
        <mxCell id="RF0k78xntV_aua3ALXSV-151" value="Cell" style="text;strokeColor=none;fillColor=none;align=left;verticalAlign=middle;spacingLeft=4;spacingRight=4;overflow=hidden;points=[[0,0.5],[1,0.5]];portConstraint=eastwest;rotatable=0;whiteSpace=wrap;html=1;" parent="RF0k78xntV_aua3ALXSV-149" vertex="1">
          <mxGeometry y="60" width="140" height="30" as="geometry" />
        </mxCell>
        <mxCell id="RF0k78xntV_aua3ALXSV-152" value="State" style="text;strokeColor=none;fillColor=none;align=left;verticalAlign=middle;spacingLeft=4;spacingRight=4;overflow=hidden;points=[[0,0.5],[1,0.5]];portConstraint=eastwest;rotatable=0;whiteSpace=wrap;html=1;" parent="RF0k78xntV_aua3ALXSV-149" vertex="1">
          <mxGeometry y="90" width="140" height="30" as="geometry" />
        </mxCell>
        <mxCell id="RF0k78xntV_aua3ALXSV-154" value="Infeed" style="text;align=left;verticalAlign=middle;spacingLeft=4;spacingRight=4;overflow=hidden;points=[[0,0.5],[1,0.5]];portConstraint=eastwest;rotatable=0;whiteSpace=wrap;html=1;" parent="RF0k78xntV_aua3ALXSV-149" vertex="1">
          <mxGeometry y="120" width="140" height="30" as="geometry" />
        </mxCell>
        <mxCell id="RF0k78xntV_aua3ALXSV-155" value="Outfeed" style="text;align=left;verticalAlign=middle;spacingLeft=4;spacingRight=4;overflow=hidden;points=[[0,0.5],[1,0.5]];portConstraint=eastwest;rotatable=0;whiteSpace=wrap;html=1;" parent="RF0k78xntV_aua3ALXSV-149" vertex="1">
          <mxGeometry y="150" width="140" height="30" as="geometry" />
        </mxCell>
        <mxCell id="_Nt4qMi-7ea7wFzrv2_W-1" style="edgeStyle=orthogonalEdgeStyle;rounded=0;orthogonalLoop=1;jettySize=auto;html=1;exitX=0;exitY=0.5;exitDx=0;exitDy=0;" parent="RF0k78xntV_aua3ALXSV-149" source="RF0k78xntV_aua3ALXSV-160" edge="1">
          <mxGeometry relative="1" as="geometry">
            <mxPoint x="-290" y="390" as="targetPoint" />
            <Array as="points">
              <mxPoint x="-90" y="195" />
              <mxPoint x="-90" y="390" />
            </Array>
          </mxGeometry>
        </mxCell>
        <mxCell id="RF0k78xntV_aua3ALXSV-160" value="SerialNumber&amp;nbsp;" style="text;align=left;verticalAlign=middle;spacingLeft=4;spacingRight=4;overflow=hidden;points=[[0,0.5],[1,0.5]];portConstraint=eastwest;rotatable=0;whiteSpace=wrap;html=1;" parent="RF0k78xntV_aua3ALXSV-149" vertex="1">
          <mxGeometry y="180" width="140" height="30" as="geometry" />
        </mxCell>
        <mxCell id="RF0k78xntV_aua3ALXSV-185" value="Mode" style="text;strokeColor=none;fillColor=none;align=left;verticalAlign=middle;spacingLeft=4;spacingRight=4;overflow=hidden;points=[[0,0.5],[1,0.5]];portConstraint=eastwest;rotatable=0;whiteSpace=wrap;html=1;" parent="RF0k78xntV_aua3ALXSV-149" vertex="1">
          <mxGeometry y="210" width="140" height="30" as="geometry" />
        </mxCell>
        <mxCell id="mXIp7Kui_fcemyGfA4mT-2" value="Takt_Time_Setpoint" style="text;strokeColor=none;fillColor=none;align=left;verticalAlign=middle;spacingLeft=4;spacingRight=4;overflow=hidden;points=[[0,0.5],[1,0.5]];portConstraint=eastwest;rotatable=0;whiteSpace=wrap;html=1;" parent="RF0k78xntV_aua3ALXSV-149" vertex="1">
          <mxGeometry y="240" width="140" height="30" as="geometry" />
        </mxCell>
        <mxCell id="RF0k78xntV_aua3ALXSV-157" style="edgeStyle=orthogonalEdgeStyle;rounded=0;orthogonalLoop=1;jettySize=auto;html=1;exitX=0;exitY=0.5;exitDx=0;exitDy=0;entryX=1;entryY=0.5;entryDx=0;entryDy=0;" parent="RF0k78xntV_aua3ALXSV-92" source="RF0k78xntV_aua3ALXSV-150" target="RF0k78xntV_aua3ALXSV-147" edge="1">
          <mxGeometry relative="1" as="geometry">
            <Array as="points">
              <mxPoint x="1000" y="415" />
              <mxPoint x="1000" y="605" />
            </Array>
          </mxGeometry>
        </mxCell>
        <mxCell id="RF0k78xntV_aua3ALXSV-158" style="edgeStyle=orthogonalEdgeStyle;rounded=0;orthogonalLoop=1;jettySize=auto;html=1;exitX=0;exitY=0.5;exitDx=0;exitDy=0;entryX=1;entryY=0.5;entryDx=0;entryDy=0;" parent="RF0k78xntV_aua3ALXSV-92" source="RF0k78xntV_aua3ALXSV-151" target="RF0k78xntV_aua3ALXSV-142" edge="1">
          <mxGeometry relative="1" as="geometry">
            <Array as="points">
              <mxPoint x="1020" y="445" />
              <mxPoint x="1020" y="635" />
            </Array>
          </mxGeometry>
        </mxCell>
        <mxCell id="RF0k78xntV_aua3ALXSV-159" style="edgeStyle=orthogonalEdgeStyle;rounded=0;orthogonalLoop=1;jettySize=auto;html=1;exitX=0;exitY=0.5;exitDx=0;exitDy=0;entryX=1;entryY=0.5;entryDx=0;entryDy=0;" parent="RF0k78xntV_aua3ALXSV-92" source="RF0k78xntV_aua3ALXSV-152" target="RF0k78xntV_aua3ALXSV-143" edge="1">
          <mxGeometry relative="1" as="geometry">
            <Array as="points">
              <mxPoint x="1040" y="475" />
              <mxPoint x="1040" y="665" />
            </Array>
          </mxGeometry>
        </mxCell>
        <mxCell id="RF0k78xntV_aua3ALXSV-165" style="edgeStyle=orthogonalEdgeStyle;rounded=0;orthogonalLoop=1;jettySize=auto;html=1;exitX=0;exitY=0.5;exitDx=0;exitDy=0;" parent="RF0k78xntV_aua3ALXSV-92" source="RF0k78xntV_aua3ALXSV-154" edge="1">
          <mxGeometry relative="1" as="geometry">
            <mxPoint x="900" y="700" as="targetPoint" />
            <Array as="points">
              <mxPoint x="1060" y="505" />
              <mxPoint x="1060" y="700" />
              <mxPoint x="900" y="700" />
            </Array>
          </mxGeometry>
        </mxCell>
        <mxCell id="RF0k78xntV_aua3ALXSV-166" style="edgeStyle=orthogonalEdgeStyle;rounded=0;orthogonalLoop=1;jettySize=auto;html=1;exitX=0;exitY=0.5;exitDx=0;exitDy=0;entryX=1;entryY=0.5;entryDx=0;entryDy=0;" parent="RF0k78xntV_aua3ALXSV-92" source="RF0k78xntV_aua3ALXSV-155" target="RF0k78xntV_aua3ALXSV-146" edge="1">
          <mxGeometry relative="1" as="geometry">
            <Array as="points">
              <mxPoint x="1080" y="535" />
              <mxPoint x="1080" y="725" />
            </Array>
          </mxGeometry>
        </mxCell>
        <mxCell id="RF0k78xntV_aua3ALXSV-180" value="Rate" style="rounded=0;whiteSpace=wrap;html=1;" parent="RF0k78xntV_aua3ALXSV-92" vertex="1">
          <mxGeometry x="285" y="440" width="80" height="30" as="geometry" />
        </mxCell>
        <mxCell id="RF0k78xntV_aua3ALXSV-189" style="edgeStyle=orthogonalEdgeStyle;rounded=0;orthogonalLoop=1;jettySize=auto;html=1;exitX=0;exitY=0.5;exitDx=0;exitDy=0;entryX=1;entryY=0.5;entryDx=0;entryDy=0;" parent="RF0k78xntV_aua3ALXSV-92" source="RF0k78xntV_aua3ALXSV-185" target="RF0k78xntV_aua3ALXSV-187" edge="1">
          <mxGeometry relative="1" as="geometry">
            <Array as="points">
              <mxPoint x="1120" y="595" />
              <mxPoint x="1120" y="785" />
            </Array>
          </mxGeometry>
        </mxCell>
        <mxCell id="_Nt4qMi-7ea7wFzrv2_W-4" style="edgeStyle=orthogonalEdgeStyle;rounded=0;orthogonalLoop=1;jettySize=auto;html=1;exitX=0;exitY=0.5;exitDx=0;exitDy=0;entryX=1;entryY=0.5;entryDx=0;entryDy=0;" parent="RF0k78xntV_aua3ALXSV-92" edge="1">
          <mxGeometry relative="1" as="geometry">
            <Array as="points">
              <mxPoint x="1140" y="625" />
              <mxPoint x="1140" y="815" />
            </Array>
            <mxPoint x="1190" y="625" as="sourcePoint" />
            <mxPoint x="900" y="815" as="targetPoint" />
          </mxGeometry>
        </mxCell>
        <mxCell id="oWvfP7ToYf8Xdh16ABEk-2" value="" style="rounded=0;whiteSpace=wrap;html=1;" vertex="1" parent="RF0k78xntV_aua3ALXSV-92">
          <mxGeometry x="550" y="100" width="220" height="80" as="geometry" />
        </mxCell>
        <mxCell id="oWvfP7ToYf8Xdh16ABEk-7" style="edgeStyle=orthogonalEdgeStyle;rounded=0;orthogonalLoop=1;jettySize=auto;html=1;exitX=1;exitY=0.5;exitDx=0;exitDy=0;entryX=1;entryY=0.5;entryDx=0;entryDy=0;" edge="1" parent="RF0k78xntV_aua3ALXSV-92" source="oWvfP7ToYf8Xdh16ABEk-4" target="RF0k78xntV_aua3ALXSV-122">
          <mxGeometry relative="1" as="geometry" />
        </mxCell>
        <mxCell id="oWvfP7ToYf8Xdh16ABEk-4" value="Schedule Manager" style="rounded=0;whiteSpace=wrap;html=1;" vertex="1" parent="RF0k78xntV_aua3ALXSV-92">
          <mxGeometry x="590" y="130" width="140" height="30" as="geometry" />
        </mxCell>
        <mxCell id="oWvfP7ToYf8Xdh16ABEk-8" style="edgeStyle=orthogonalEdgeStyle;rounded=0;orthogonalLoop=1;jettySize=auto;html=1;exitX=0;exitY=0.5;exitDx=0;exitDy=0;entryX=1;entryY=0.5;entryDx=0;entryDy=0;" edge="1" parent="RF0k78xntV_aua3ALXSV-92" source="_Nt4qMi-7ea7wFzrv2_W-3" target="RF0k78xntV_aua3ALXSV-180">
          <mxGeometry relative="1" as="geometry">
            <Array as="points">
              <mxPoint x="520" y="815" />
              <mxPoint x="520" y="455" />
            </Array>
          </mxGeometry>
        </mxCell>
        <mxCell id="oWvfP7ToYf8Xdh16ABEk-13" value="Calculated&amp;nbsp;&lt;br&gt;1hr / &lt;br&gt;Takt Time Setpoint" style="edgeLabel;html=1;align=center;verticalAlign=middle;resizable=0;points=[];" vertex="1" connectable="0" parent="oWvfP7ToYf8Xdh16ABEk-8">
          <mxGeometry x="-0.5616" y="-3" relative="1" as="geometry">
            <mxPoint x="-75" y="-72" as="offset" />
          </mxGeometry>
        </mxCell>
        <mxCell id="RF0k78xntV_aua3ALXSV-93" value="Site" style="rounded=0;whiteSpace=wrap;html=1;fontStyle=1;fontSize=20;" parent="1" vertex="1">
          <mxGeometry x="58" y="754" width="106" height="34" as="geometry" />
        </mxCell>
        <mxCell id="RF0k78xntV_aua3ALXSV-134" value="PLC" style="rounded=0;whiteSpace=wrap;html=1;fontSize=14;fontStyle=1" parent="1" vertex="1">
          <mxGeometry x="1221" y="1080" width="120" height="50" as="geometry" />
        </mxCell>
        <mxCell id="oWvfP7ToYf8Xdh16ABEk-3" value="Alarming" style="rounded=0;whiteSpace=wrap;html=1;" vertex="1" parent="1">
          <mxGeometry x="625" y="840" width="120" height="40" as="geometry" />
        </mxCell>
      </root>
    </mxGraphModel>
  </diagram>
  <diagram id="u-cxBAkaLCU1vluoVzls" name="OEE Data Flow">
    <mxGraphModel dx="1647" dy="886" grid="1" gridSize="10" guides="1" tooltips="1" connect="1" arrows="1" fold="1" page="1" pageScale="1" pageWidth="850" pageHeight="1100" math="0" shadow="0">
      <root>
        <mxCell id="0" />
        <mxCell id="1" parent="0" />
        <mxCell id="5HxtPE3qpu_ST4j68AVL-1" value="" style="swimlane;startSize=0;" parent="1" vertex="1">
          <mxGeometry x="40" y="770" width="940" height="650" as="geometry" />
        </mxCell>
        <mxCell id="5HxtPE3qpu_ST4j68AVL-2" value="" style="rounded=0;whiteSpace=wrap;html=1;" parent="5HxtPE3qpu_ST4j68AVL-1" vertex="1">
          <mxGeometry x="30" y="50" width="850" height="570" as="geometry" />
        </mxCell>
        <mxCell id="5HxtPE3qpu_ST4j68AVL-3" value="" style="rounded=0;whiteSpace=wrap;html=1;" parent="5HxtPE3qpu_ST4j68AVL-1" vertex="1">
          <mxGeometry x="60" y="90" width="410" height="470" as="geometry" />
        </mxCell>
        <mxCell id="5HxtPE3qpu_ST4j68AVL-4" value="Sepasoft-MES" style="rounded=0;whiteSpace=wrap;html=1;fontStyle=1;fontSize=16;" parent="5HxtPE3qpu_ST4j68AVL-1" vertex="1">
          <mxGeometry x="73" y="70" width="150" height="40" as="geometry" />
        </mxCell>
        <mxCell id="5HxtPE3qpu_ST4j68AVL-7" value="Ignition" style="rounded=0;whiteSpace=wrap;html=1;fontStyle=1;fontSize=16;" parent="5HxtPE3qpu_ST4j68AVL-1" vertex="1">
          <mxGeometry x="385" y="20" width="150" height="40" as="geometry" />
        </mxCell>
        <mxCell id="5HxtPE3qpu_ST4j68AVL-9" style="edgeStyle=orthogonalEdgeStyle;rounded=0;orthogonalLoop=1;jettySize=auto;html=1;exitX=0;exitY=0.5;exitDx=0;exitDy=0;entryX=0;entryY=0.5;entryDx=0;entryDy=0;" parent="5HxtPE3qpu_ST4j68AVL-1" source="5HxtPE3qpu_ST4j68AVL-10" target="5HxtPE3qpu_ST4j68AVL-14" edge="1">
          <mxGeometry relative="1" as="geometry" />
        </mxCell>
        <mxCell id="5HxtPE3qpu_ST4j68AVL-10" value="Plant Hierarchy" style="rounded=0;whiteSpace=wrap;html=1;fontStyle=1;fontSize=14;" parent="5HxtPE3qpu_ST4j68AVL-1" vertex="1">
          <mxGeometry x="90" y="140" width="120" height="40" as="geometry" />
        </mxCell>
        <mxCell id="5HxtPE3qpu_ST4j68AVL-14" value="Equipment&amp;nbsp;&lt;br&gt;ISA-95" style="rounded=0;whiteSpace=wrap;html=1;" parent="5HxtPE3qpu_ST4j68AVL-1" vertex="1">
          <mxGeometry x="103" y="336" width="120" height="60" as="geometry" />
        </mxCell>
        <mxCell id="5HxtPE3qpu_ST4j68AVL-16" value="&lt;font style=&quot;font-size: 12px;&quot;&gt;Sepasoft OEE&lt;/font&gt;" style="rounded=0;whiteSpace=wrap;html=1;fontStyle=1;fontSize=14;" parent="5HxtPE3qpu_ST4j68AVL-1" vertex="1">
          <mxGeometry x="98" y="306" width="132" height="30" as="geometry" />
        </mxCell>
        <mxCell id="5HxtPE3qpu_ST4j68AVL-19" value="OEE Module" style="rounded=0;whiteSpace=wrap;html=1;fontSize=14;fontStyle=1" parent="5HxtPE3qpu_ST4j68AVL-1" vertex="1">
          <mxGeometry x="260" y="170" width="150" height="50" as="geometry" />
        </mxCell>
        <mxCell id="5HxtPE3qpu_ST4j68AVL-20" value="" style="rounded=0;whiteSpace=wrap;html=1;" parent="5HxtPE3qpu_ST4j68AVL-1" vertex="1">
          <mxGeometry x="614" y="180" width="196" height="370" as="geometry" />
        </mxCell>
        <mxCell id="5HxtPE3qpu_ST4j68AVL-33" value="Tags" style="swimlane;fontStyle=0;childLayout=stackLayout;horizontal=1;startSize=30;horizontalStack=0;resizeParent=1;resizeParentMax=0;resizeLast=0;collapsible=1;marginBottom=0;whiteSpace=wrap;html=1;" parent="5HxtPE3qpu_ST4j68AVL-1" vertex="1">
          <mxGeometry x="639" y="220" width="140" height="270" as="geometry" />
        </mxCell>
        <mxCell id="5HxtPE3qpu_ST4j68AVL-34" value="Equipment" style="text;strokeColor=#82b366;fillColor=#d5e8d4;align=left;verticalAlign=middle;spacingLeft=4;spacingRight=4;overflow=hidden;points=[[0,0.5],[1,0.5]];portConstraint=eastwest;rotatable=0;whiteSpace=wrap;html=1;" parent="5HxtPE3qpu_ST4j68AVL-33" vertex="1">
          <mxGeometry y="30" width="140" height="30" as="geometry" />
        </mxCell>
        <mxCell id="5HxtPE3qpu_ST4j68AVL-36" value="State" style="text;strokeColor=#82b366;fillColor=#d5e8d4;align=left;verticalAlign=middle;spacingLeft=4;spacingRight=4;overflow=hidden;points=[[0,0.5],[1,0.5]];portConstraint=eastwest;rotatable=0;whiteSpace=wrap;html=1;" parent="5HxtPE3qpu_ST4j68AVL-33" vertex="1">
          <mxGeometry y="60" width="140" height="30" as="geometry" />
        </mxCell>
        <mxCell id="5HxtPE3qpu_ST4j68AVL-37" value="Infeed" style="text;align=left;verticalAlign=middle;spacingLeft=4;spacingRight=4;overflow=hidden;points=[[0,0.5],[1,0.5]];portConstraint=eastwest;rotatable=0;whiteSpace=wrap;html=1;fillColor=#d5e8d4;strokeColor=#82b366;" parent="5HxtPE3qpu_ST4j68AVL-33" vertex="1">
          <mxGeometry y="90" width="140" height="30" as="geometry" />
        </mxCell>
        <mxCell id="5HxtPE3qpu_ST4j68AVL-38" value="Outfeed" style="text;align=left;verticalAlign=middle;spacingLeft=4;spacingRight=4;overflow=hidden;points=[[0,0.5],[1,0.5]];portConstraint=eastwest;rotatable=0;whiteSpace=wrap;html=1;fillColor=#d5e8d4;strokeColor=#82b366;" parent="5HxtPE3qpu_ST4j68AVL-33" vertex="1">
          <mxGeometry y="120" width="140" height="30" as="geometry" />
        </mxCell>
        <mxCell id="5HxtPE3qpu_ST4j68AVL-40" value="Unique Identifier" style="text;align=left;verticalAlign=middle;spacingLeft=4;spacingRight=4;overflow=hidden;points=[[0,0.5],[1,0.5]];portConstraint=eastwest;rotatable=0;whiteSpace=wrap;html=1;fillColor=#ffe6cc;strokeColor=#d79b00;" parent="5HxtPE3qpu_ST4j68AVL-33" vertex="1">
          <mxGeometry y="150" width="140" height="30" as="geometry" />
        </mxCell>
        <mxCell id="5HxtPE3qpu_ST4j68AVL-41" value="Mode" style="text;strokeColor=#d79b00;fillColor=#ffe6cc;align=left;verticalAlign=middle;spacingLeft=4;spacingRight=4;overflow=hidden;points=[[0,0.5],[1,0.5]];portConstraint=eastwest;rotatable=0;whiteSpace=wrap;html=1;" parent="5HxtPE3qpu_ST4j68AVL-33" vertex="1">
          <mxGeometry y="180" width="140" height="30" as="geometry" />
        </mxCell>
        <mxCell id="5HxtPE3qpu_ST4j68AVL-43" value="Rate" style="text;strokeColor=#82b366;fillColor=#d5e8d4;align=left;verticalAlign=middle;spacingLeft=4;spacingRight=4;overflow=hidden;points=[[0,0.5],[1,0.5]];portConstraint=eastwest;rotatable=0;whiteSpace=wrap;html=1;" parent="5HxtPE3qpu_ST4j68AVL-33" vertex="1">
          <mxGeometry y="210" width="140" height="30" as="geometry" />
        </mxCell>
        <mxCell id="5HxtPE3qpu_ST4j68AVL-81" value="Reject" style="text;align=left;verticalAlign=middle;spacingLeft=4;spacingRight=4;overflow=hidden;points=[[0,0.5],[1,0.5]];portConstraint=eastwest;rotatable=0;whiteSpace=wrap;html=1;fillColor=#fff2cc;strokeColor=#d6b656;" parent="5HxtPE3qpu_ST4j68AVL-33" vertex="1">
          <mxGeometry y="240" width="140" height="30" as="geometry" />
        </mxCell>
        <mxCell id="5HxtPE3qpu_ST4j68AVL-55" value="Remote Tags (PLC)" style="rounded=0;whiteSpace=wrap;html=1;fontSize=14;fontStyle=1" parent="5HxtPE3qpu_ST4j68AVL-1" vertex="1">
          <mxGeometry x="630" y="160" width="120" height="50" as="geometry" />
        </mxCell>
        <mxCell id="5HxtPE3qpu_ST4j68AVL-63" value="Tag Collector" style="swimlane;fontStyle=0;childLayout=stackLayout;horizontal=1;startSize=30;horizontalStack=0;resizeParent=1;resizeParentMax=0;resizeLast=0;collapsible=1;marginBottom=0;whiteSpace=wrap;html=1;" parent="5HxtPE3qpu_ST4j68AVL-1" vertex="1">
          <mxGeometry x="265" y="220" width="140" height="270" as="geometry" />
        </mxCell>
        <mxCell id="5HxtPE3qpu_ST4j68AVL-64" value="Equipment" style="text;strokeColor=#82b366;fillColor=#d5e8d4;align=left;verticalAlign=middle;spacingLeft=4;spacingRight=4;overflow=hidden;points=[[0,0.5],[1,0.5]];portConstraint=eastwest;rotatable=0;whiteSpace=wrap;html=1;" parent="5HxtPE3qpu_ST4j68AVL-63" vertex="1">
          <mxGeometry y="30" width="140" height="30" as="geometry" />
        </mxCell>
        <mxCell id="5HxtPE3qpu_ST4j68AVL-65" value="State" style="text;strokeColor=#82b366;fillColor=#d5e8d4;align=left;verticalAlign=middle;spacingLeft=4;spacingRight=4;overflow=hidden;points=[[0,0.5],[1,0.5]];portConstraint=eastwest;rotatable=0;whiteSpace=wrap;html=1;" parent="5HxtPE3qpu_ST4j68AVL-63" vertex="1">
          <mxGeometry y="60" width="140" height="30" as="geometry" />
        </mxCell>
        <mxCell id="5HxtPE3qpu_ST4j68AVL-66" value="Infeed" style="text;align=left;verticalAlign=middle;spacingLeft=4;spacingRight=4;overflow=hidden;points=[[0,0.5],[1,0.5]];portConstraint=eastwest;rotatable=0;whiteSpace=wrap;html=1;fillColor=#d5e8d4;strokeColor=#82b366;" parent="5HxtPE3qpu_ST4j68AVL-63" vertex="1">
          <mxGeometry y="90" width="140" height="30" as="geometry" />
        </mxCell>
        <mxCell id="5HxtPE3qpu_ST4j68AVL-67" value="Outfeed" style="text;align=left;verticalAlign=middle;spacingLeft=4;spacingRight=4;overflow=hidden;points=[[0,0.5],[1,0.5]];portConstraint=eastwest;rotatable=0;whiteSpace=wrap;html=1;fillColor=#d5e8d4;strokeColor=#82b366;" parent="5HxtPE3qpu_ST4j68AVL-63" vertex="1">
          <mxGeometry y="120" width="140" height="30" as="geometry" />
        </mxCell>
        <mxCell id="5HxtPE3qpu_ST4j68AVL-68" value="Unique Identifier" style="text;align=left;verticalAlign=middle;spacingLeft=4;spacingRight=4;overflow=hidden;points=[[0,0.5],[1,0.5]];portConstraint=eastwest;rotatable=0;whiteSpace=wrap;html=1;fillColor=#ffe6cc;strokeColor=#d79b00;" parent="5HxtPE3qpu_ST4j68AVL-63" vertex="1">
          <mxGeometry y="150" width="140" height="30" as="geometry" />
        </mxCell>
        <mxCell id="5HxtPE3qpu_ST4j68AVL-69" value="Mode" style="text;strokeColor=#d79b00;fillColor=#ffe6cc;align=left;verticalAlign=middle;spacingLeft=4;spacingRight=4;overflow=hidden;points=[[0,0.5],[1,0.5]];portConstraint=eastwest;rotatable=0;whiteSpace=wrap;html=1;" parent="5HxtPE3qpu_ST4j68AVL-63" vertex="1">
          <mxGeometry y="180" width="140" height="30" as="geometry" />
        </mxCell>
        <mxCell id="5HxtPE3qpu_ST4j68AVL-71" value="Rate" style="text;strokeColor=#82b366;fillColor=#d5e8d4;align=left;verticalAlign=middle;spacingLeft=4;spacingRight=4;overflow=hidden;points=[[0,0.5],[1,0.5]];portConstraint=eastwest;rotatable=0;whiteSpace=wrap;html=1;" parent="5HxtPE3qpu_ST4j68AVL-63" vertex="1">
          <mxGeometry y="210" width="140" height="30" as="geometry" />
        </mxCell>
        <mxCell id="5HxtPE3qpu_ST4j68AVL-80" value="Reject" style="text;align=left;verticalAlign=middle;spacingLeft=4;spacingRight=4;overflow=hidden;points=[[0,0.5],[1,0.5]];portConstraint=eastwest;rotatable=0;whiteSpace=wrap;html=1;fillColor=#fff2cc;strokeColor=#d6b656;" parent="5HxtPE3qpu_ST4j68AVL-63" vertex="1">
          <mxGeometry y="240" width="140" height="30" as="geometry" />
        </mxCell>
        <mxCell id="5HxtPE3qpu_ST4j68AVL-72" style="edgeStyle=orthogonalEdgeStyle;rounded=0;orthogonalLoop=1;jettySize=auto;html=1;exitX=0;exitY=0.5;exitDx=0;exitDy=0;" parent="5HxtPE3qpu_ST4j68AVL-1" source="5HxtPE3qpu_ST4j68AVL-34" target="5HxtPE3qpu_ST4j68AVL-64" edge="1">
          <mxGeometry relative="1" as="geometry" />
        </mxCell>
        <mxCell id="5HxtPE3qpu_ST4j68AVL-73" style="edgeStyle=orthogonalEdgeStyle;rounded=0;orthogonalLoop=1;jettySize=auto;html=1;exitX=0;exitY=0.5;exitDx=0;exitDy=0;entryX=1;entryY=0.5;entryDx=0;entryDy=0;" parent="5HxtPE3qpu_ST4j68AVL-1" source="5HxtPE3qpu_ST4j68AVL-36" target="5HxtPE3qpu_ST4j68AVL-65" edge="1">
          <mxGeometry relative="1" as="geometry" />
        </mxCell>
        <mxCell id="5HxtPE3qpu_ST4j68AVL-74" style="edgeStyle=orthogonalEdgeStyle;rounded=0;orthogonalLoop=1;jettySize=auto;html=1;exitX=0;exitY=0.5;exitDx=0;exitDy=0;entryX=1;entryY=0.5;entryDx=0;entryDy=0;" parent="5HxtPE3qpu_ST4j68AVL-1" source="5HxtPE3qpu_ST4j68AVL-37" target="5HxtPE3qpu_ST4j68AVL-66" edge="1">
          <mxGeometry relative="1" as="geometry" />
        </mxCell>
        <mxCell id="5HxtPE3qpu_ST4j68AVL-75" style="edgeStyle=orthogonalEdgeStyle;rounded=0;orthogonalLoop=1;jettySize=auto;html=1;exitX=0;exitY=0.5;exitDx=0;exitDy=0;entryX=1;entryY=0.5;entryDx=0;entryDy=0;" parent="5HxtPE3qpu_ST4j68AVL-1" source="5HxtPE3qpu_ST4j68AVL-38" target="5HxtPE3qpu_ST4j68AVL-67" edge="1">
          <mxGeometry relative="1" as="geometry" />
        </mxCell>
        <mxCell id="5HxtPE3qpu_ST4j68AVL-76" style="edgeStyle=orthogonalEdgeStyle;rounded=0;orthogonalLoop=1;jettySize=auto;html=1;exitX=0;exitY=0.5;exitDx=0;exitDy=0;entryX=1;entryY=0.5;entryDx=0;entryDy=0;" parent="5HxtPE3qpu_ST4j68AVL-1" source="5HxtPE3qpu_ST4j68AVL-40" target="5HxtPE3qpu_ST4j68AVL-68" edge="1">
          <mxGeometry relative="1" as="geometry" />
        </mxCell>
        <mxCell id="5HxtPE3qpu_ST4j68AVL-77" style="edgeStyle=orthogonalEdgeStyle;rounded=0;orthogonalLoop=1;jettySize=auto;html=1;exitX=0;exitY=0.5;exitDx=0;exitDy=0;entryX=1;entryY=0.5;entryDx=0;entryDy=0;" parent="5HxtPE3qpu_ST4j68AVL-1" source="5HxtPE3qpu_ST4j68AVL-41" target="5HxtPE3qpu_ST4j68AVL-69" edge="1">
          <mxGeometry relative="1" as="geometry" />
        </mxCell>
        <mxCell id="5HxtPE3qpu_ST4j68AVL-78" style="edgeStyle=orthogonalEdgeStyle;rounded=0;orthogonalLoop=1;jettySize=auto;html=1;exitX=0;exitY=0.5;exitDx=0;exitDy=0;entryX=1;entryY=0.5;entryDx=0;entryDy=0;" parent="5HxtPE3qpu_ST4j68AVL-1" edge="1">
          <mxGeometry relative="1" as="geometry">
            <mxPoint x="639" y="445" as="sourcePoint" />
            <mxPoint x="405" y="445" as="targetPoint" />
          </mxGeometry>
        </mxCell>
        <mxCell id="5HxtPE3qpu_ST4j68AVL-79" style="edgeStyle=orthogonalEdgeStyle;rounded=0;orthogonalLoop=1;jettySize=auto;html=1;exitX=0;exitY=0.5;exitDx=0;exitDy=0;entryX=1;entryY=0.5;entryDx=0;entryDy=0;" parent="5HxtPE3qpu_ST4j68AVL-1" source="5HxtPE3qpu_ST4j68AVL-43" target="5HxtPE3qpu_ST4j68AVL-71" edge="1">
          <mxGeometry relative="1" as="geometry" />
        </mxCell>
        <mxCell id="5HxtPE3qpu_ST4j68AVL-82" style="edgeStyle=orthogonalEdgeStyle;rounded=0;orthogonalLoop=1;jettySize=auto;html=1;exitX=0;exitY=0.5;exitDx=0;exitDy=0;" parent="5HxtPE3qpu_ST4j68AVL-1" source="5HxtPE3qpu_ST4j68AVL-81" target="5HxtPE3qpu_ST4j68AVL-80" edge="1">
          <mxGeometry relative="1" as="geometry" />
        </mxCell>
        <mxCell id="5HxtPE3qpu_ST4j68AVL-54" value="Site" style="rounded=0;whiteSpace=wrap;html=1;fontStyle=1;fontSize=20;" parent="1" vertex="1">
          <mxGeometry x="58" y="754" width="106" height="34" as="geometry" />
        </mxCell>
        <mxCell id="nTfjwsC8snGan4jAFpdy-2" value="PLC" style="rounded=0;whiteSpace=wrap;html=1;fillColor=#d5e8d4;strokeColor=#82b366;" parent="1" vertex="1">
          <mxGeometry x="1030" y="990" width="100" height="50" as="geometry" />
        </mxCell>
      </root>
    </mxGraphModel>
  </diagram>
  <diagram id="-fNOh6AiBlwwCp4QUCRg" name="DFD">
    <mxGraphModel dx="2353" dy="1266" grid="0" gridSize="10" guides="1" tooltips="1" connect="1" arrows="1" fold="1" page="1" pageScale="1" pageWidth="1100" pageHeight="850" math="0" shadow="0">
      <root>
        <mxCell id="0" />
        <mxCell id="1" parent="0" />
        <mxCell id="t-1gEfBDIV51QoKaV2OM-3" value="" style="swimlane;startSize=0;" vertex="1" parent="1">
          <mxGeometry x="58" y="35" width="974" height="541" as="geometry" />
        </mxCell>
        <mxCell id="t-1gEfBDIV51QoKaV2OM-4" value="" style="rounded=0;whiteSpace=wrap;html=1;fillColor=#f5f5f5;fontColor=#333333;strokeColor=#666666;" vertex="1" parent="t-1gEfBDIV51QoKaV2OM-3">
          <mxGeometry x="39" y="85" width="839" height="337" as="geometry" />
        </mxCell>
        <mxCell id="t-1gEfBDIV51QoKaV2OM-5" value="Sepasoft OEE" style="rounded=0;whiteSpace=wrap;html=1;fillColor=#dae8fc;strokeColor=#6c8ebf;" vertex="1" parent="t-1gEfBDIV51QoKaV2OM-3">
          <mxGeometry x="73" y="130" width="452" height="168" as="geometry" />
        </mxCell>
        <mxCell id="t-1gEfBDIV51QoKaV2OM-16" value="" style="edgeStyle=orthogonalEdgeStyle;rounded=0;orthogonalLoop=1;jettySize=auto;html=1;endArrow=none;endFill=0;" edge="1" parent="t-1gEfBDIV51QoKaV2OM-3" source="t-1gEfBDIV51QoKaV2OM-6" target="t-1gEfBDIV51QoKaV2OM-15">
          <mxGeometry relative="1" as="geometry" />
        </mxCell>
        <mxCell id="t-1gEfBDIV51QoKaV2OM-6" value="Tags" style="rounded=0;whiteSpace=wrap;html=1;fillColor=#ffe6cc;strokeColor=#d79b00;" vertex="1" parent="t-1gEfBDIV51QoKaV2OM-3">
          <mxGeometry x="95" y="336" width="76" height="60" as="geometry" />
        </mxCell>
        <mxCell id="t-1gEfBDIV51QoKaV2OM-9" style="edgeStyle=orthogonalEdgeStyle;rounded=0;orthogonalLoop=1;jettySize=auto;html=1;exitX=0.5;exitY=0;exitDx=0;exitDy=0;entryX=0.5;entryY=1;entryDx=0;entryDy=0;endArrow=none;endFill=0;" edge="1" parent="t-1gEfBDIV51QoKaV2OM-3" source="t-1gEfBDIV51QoKaV2OM-8" target="t-1gEfBDIV51QoKaV2OM-6">
          <mxGeometry relative="1" as="geometry" />
        </mxCell>
        <mxCell id="t-1gEfBDIV51QoKaV2OM-8" value="PLC" style="rounded=0;whiteSpace=wrap;html=1;" vertex="1" parent="t-1gEfBDIV51QoKaV2OM-3">
          <mxGeometry x="104" y="454" width="58" height="60" as="geometry" />
        </mxCell>
        <mxCell id="t-1gEfBDIV51QoKaV2OM-10" style="edgeStyle=orthogonalEdgeStyle;rounded=0;orthogonalLoop=1;jettySize=auto;html=1;exitX=0.5;exitY=0;exitDx=0;exitDy=0;entryX=0.132;entryY=0.988;entryDx=0;entryDy=0;entryPerimeter=0;endArrow=none;endFill=0;" edge="1" parent="t-1gEfBDIV51QoKaV2OM-3" source="t-1gEfBDIV51QoKaV2OM-6" target="t-1gEfBDIV51QoKaV2OM-5">
          <mxGeometry relative="1" as="geometry" />
        </mxCell>
        <mxCell id="t-1gEfBDIV51QoKaV2OM-11" value="Shift Schedule" style="whiteSpace=wrap;html=1;fillColor=#fff2cc;strokeColor=#d6b656;rounded=0;" vertex="1" parent="t-1gEfBDIV51QoKaV2OM-3">
          <mxGeometry x="405" y="336" width="120" height="29" as="geometry" />
        </mxCell>
        <mxCell id="t-1gEfBDIV51QoKaV2OM-14" style="edgeStyle=orthogonalEdgeStyle;rounded=0;orthogonalLoop=1;jettySize=auto;html=1;exitX=0.5;exitY=0;exitDx=0;exitDy=0;entryX=0.867;entryY=0.994;entryDx=0;entryDy=0;entryPerimeter=0;endArrow=none;endFill=0;" edge="1" parent="t-1gEfBDIV51QoKaV2OM-3" source="t-1gEfBDIV51QoKaV2OM-11" target="t-1gEfBDIV51QoKaV2OM-5">
          <mxGeometry relative="1" as="geometry" />
        </mxCell>
        <mxCell id="t-1gEfBDIV51QoKaV2OM-15" value="Standard &lt;br style=&quot;font-size: 10px;&quot;&gt;Rate" style="shape=parallelogram;perimeter=parallelogramPerimeter;whiteSpace=wrap;html=1;fixedSize=1;fillColor=#ffe6cc;strokeColor=#d79b00;rounded=0;fontSize=10;" vertex="1" parent="t-1gEfBDIV51QoKaV2OM-3">
          <mxGeometry x="261" y="344.5" width="88" height="43" as="geometry" />
        </mxCell>
        <mxCell id="t-1gEfBDIV51QoKaV2OM-17" style="edgeStyle=orthogonalEdgeStyle;rounded=0;orthogonalLoop=1;jettySize=auto;html=1;exitX=0.5;exitY=0;exitDx=0;exitDy=0;entryX=0.513;entryY=0.988;entryDx=0;entryDy=0;entryPerimeter=0;endArrow=none;endFill=0;" edge="1" parent="t-1gEfBDIV51QoKaV2OM-3" source="t-1gEfBDIV51QoKaV2OM-15" target="t-1gEfBDIV51QoKaV2OM-5">
          <mxGeometry relative="1" as="geometry" />
        </mxCell>
        <mxCell id="t-1gEfBDIV51QoKaV2OM-22" style="edgeStyle=orthogonalEdgeStyle;rounded=0;orthogonalLoop=1;jettySize=auto;html=1;exitX=0;exitY=0.5;exitDx=0;exitDy=0;entryX=1;entryY=0.5;entryDx=0;entryDy=0;endArrow=none;endFill=0;" edge="1" parent="t-1gEfBDIV51QoKaV2OM-3" source="t-1gEfBDIV51QoKaV2OM-18" target="t-1gEfBDIV51QoKaV2OM-5">
          <mxGeometry relative="1" as="geometry" />
        </mxCell>
        <mxCell id="t-1gEfBDIV51QoKaV2OM-18" value="OEE Project" style="rounded=0;whiteSpace=wrap;html=1;fillColor=#d5e8d4;strokeColor=#82b366;" vertex="1" parent="t-1gEfBDIV51QoKaV2OM-3">
          <mxGeometry x="547" y="128" width="309" height="172" as="geometry" />
        </mxCell>
        <mxCell id="t-1gEfBDIV51QoKaV2OM-21" value="" style="edgeStyle=orthogonalEdgeStyle;rounded=0;orthogonalLoop=1;jettySize=auto;html=1;endArrow=none;endFill=0;" edge="1" parent="t-1gEfBDIV51QoKaV2OM-3" source="t-1gEfBDIV51QoKaV2OM-20" target="t-1gEfBDIV51QoKaV2OM-18">
          <mxGeometry relative="1" as="geometry" />
        </mxCell>
        <mxCell id="t-1gEfBDIV51QoKaV2OM-20" value="End-user" style="shape=umlActor;verticalLabelPosition=bottom;verticalAlign=top;html=1;outlineConnect=0;" vertex="1" parent="t-1gEfBDIV51QoKaV2OM-3">
          <mxGeometry x="695" y="13" width="13" height="29" as="geometry" />
        </mxCell>
        <mxCell id="t-1gEfBDIV51QoKaV2OM-37" value="Ignition Gateway" style="rounded=0;whiteSpace=wrap;html=1;fillColor=#f5f5f5;fontColor=#333333;strokeColor=#666666;" vertex="1" parent="t-1gEfBDIV51QoKaV2OM-3">
          <mxGeometry x="47" y="73" width="118" height="33" as="geometry" />
        </mxCell>
        <mxCell id="t-1gEfBDIV51QoKaV2OM-23" value="Tag Data Flow" style="swimlane;whiteSpace=wrap;html=1;" vertex="1" parent="1">
          <mxGeometry x="62" y="592" width="670" height="230" as="geometry" />
        </mxCell>
        <mxCell id="t-1gEfBDIV51QoKaV2OM-24" value="PLC" style="rounded=0;whiteSpace=wrap;html=1;fillColor=#dae8fc;strokeColor=#6c8ebf;" vertex="1" parent="t-1gEfBDIV51QoKaV2OM-23">
          <mxGeometry x="10" y="30" width="100" height="70" as="geometry" />
        </mxCell>
        <mxCell id="t-1gEfBDIV51QoKaV2OM-25" value="AMS&lt;br&gt;Ignition Gateway&lt;br&gt;PW14" style="rounded=0;whiteSpace=wrap;html=1;fillColor=#ffe6cc;strokeColor=#d79b00;" vertex="1" parent="t-1gEfBDIV51QoKaV2OM-23">
          <mxGeometry x="90" y="120" width="100" height="70" as="geometry" />
        </mxCell>
        <mxCell id="t-1gEfBDIV51QoKaV2OM-26" value="" style="edgeStyle=orthogonalEdgeStyle;rounded=0;orthogonalLoop=1;jettySize=auto;html=1;exitX=0.999;exitY=0.634;exitDx=0;exitDy=0;exitPerimeter=0;startArrow=classic;startFill=1;" edge="1" parent="t-1gEfBDIV51QoKaV2OM-23" source="t-1gEfBDIV51QoKaV2OM-24" target="t-1gEfBDIV51QoKaV2OM-25">
          <mxGeometry relative="1" as="geometry" />
        </mxCell>
        <mxCell id="t-1gEfBDIV51QoKaV2OM-27" value="" style="edgeStyle=orthogonalEdgeStyle;rounded=0;orthogonalLoop=1;jettySize=auto;html=1;" edge="1" parent="t-1gEfBDIV51QoKaV2OM-23" source="t-1gEfBDIV51QoKaV2OM-25" target="t-1gEfBDIV51QoKaV2OM-35">
          <mxGeometry relative="1" as="geometry" />
        </mxCell>
        <mxCell id="t-1gEfBDIV51QoKaV2OM-28" value="Remote Tag &lt;br&gt;Provider" style="edgeLabel;html=1;align=center;verticalAlign=middle;resizable=0;points=[];" vertex="1" connectable="0" parent="t-1gEfBDIV51QoKaV2OM-27">
          <mxGeometry x="0.0001" y="-1" relative="1" as="geometry">
            <mxPoint as="offset" />
          </mxGeometry>
        </mxCell>
        <mxCell id="t-1gEfBDIV51QoKaV2OM-29" value="" style="edgeStyle=orthogonalEdgeStyle;rounded=0;orthogonalLoop=1;jettySize=auto;html=1;" edge="1" parent="t-1gEfBDIV51QoKaV2OM-23" source="t-1gEfBDIV51QoKaV2OM-35" target="t-1gEfBDIV51QoKaV2OM-32">
          <mxGeometry relative="1" as="geometry" />
        </mxCell>
        <mxCell id="t-1gEfBDIV51QoKaV2OM-30" value="Remote Tag &lt;br&gt;Provider" style="edgeLabel;html=1;align=center;verticalAlign=middle;resizable=0;points=[];" vertex="1" connectable="0" parent="t-1gEfBDIV51QoKaV2OM-29">
          <mxGeometry x="0.0506" y="4" relative="1" as="geometry">
            <mxPoint as="offset" />
          </mxGeometry>
        </mxCell>
        <mxCell id="t-1gEfBDIV51QoKaV2OM-31" value="" style="group" vertex="1" connectable="0" parent="t-1gEfBDIV51QoKaV2OM-23">
          <mxGeometry x="530" y="120" width="100" height="90" as="geometry" />
        </mxCell>
        <mxCell id="t-1gEfBDIV51QoKaV2OM-32" value="Report Server&lt;br&gt;Ignition Gateway&lt;br&gt;PW11" style="rounded=0;whiteSpace=wrap;html=1;fillColor=#ffe6cc;strokeColor=#d79b00;" vertex="1" parent="t-1gEfBDIV51QoKaV2OM-31">
          <mxGeometry width="100" height="70" as="geometry" />
        </mxCell>
        <mxCell id="t-1gEfBDIV51QoKaV2OM-33" value="Readonly" style="text;html=1;align=center;verticalAlign=middle;whiteSpace=wrap;rounded=0;" vertex="1" parent="t-1gEfBDIV51QoKaV2OM-31">
          <mxGeometry x="20" y="70" width="60" height="20" as="geometry" />
        </mxCell>
        <mxCell id="t-1gEfBDIV51QoKaV2OM-34" value="" style="group" vertex="1" connectable="0" parent="t-1gEfBDIV51QoKaV2OM-23">
          <mxGeometry x="310" y="60" width="100" height="90" as="geometry" />
        </mxCell>
        <mxCell id="t-1gEfBDIV51QoKaV2OM-35" value="EAM&lt;br&gt;Ignition Gateway&lt;br&gt;PW13" style="rounded=0;whiteSpace=wrap;html=1;fillColor=#ffe6cc;strokeColor=#d79b00;" vertex="1" parent="t-1gEfBDIV51QoKaV2OM-34">
          <mxGeometry width="100" height="70" as="geometry" />
        </mxCell>
        <mxCell id="t-1gEfBDIV51QoKaV2OM-36" value="Readonly" style="text;html=1;align=center;verticalAlign=middle;whiteSpace=wrap;rounded=0;" vertex="1" parent="t-1gEfBDIV51QoKaV2OM-34">
          <mxGeometry x="20" y="70" width="60" height="20" as="geometry" />
        </mxCell>
      </root>
    </mxGraphModel>
  </diagram>
</mxfile>
